<svg width="500" height="120" viewBox="0 0 500 120" fill="none" xmlns="http://www.w3.org/2000/svg">
<rect width="500" height="120" fill="#118DF0"/>
<g clip-path="url(#clip0_2_3)">
<path d="M156.838 9H60.8285C55.9527 9 52 12.9527 52 17.8285V102.803C52 107.679 55.9527 111.631 60.8285 111.631H156.838C161.714 111.631 165.667 107.679 165.667 102.803V17.8285C165.667 12.9527 161.714 9 156.838 9Z" fill="#0E2F56"/>
<path d="M96.1567 41.3301C93.0865 41.3995 90.462 43.4099 88.2832 47.3516C85.9954 51.7885 84.8664 56.7206 84.8862 62.1479C84.9258 62.8015 84.9951 62.8609 85.1041 62.336C86.0251 58.3448 86.9858 55.2251 87.9861 52.9671C88.9665 50.6991 90.0559 48.8372 91.2444 47.4012C93.9778 44.222 96.3448 43.707 98.3553 45.8562C100.554 48.3915 101.723 52.67 101.861 58.6716C101.742 66.7432 100.683 72.8439 98.6821 76.9936C96.1765 82.0445 93.6015 83.7282 90.9869 82.0247C87.4215 79.1824 85.4408 72.8836 85.0446 63.1481C84.906 62.8114 84.7772 63.059 84.6782 63.8909C84.49 64.9011 84.3613 66.0103 84.282 67.1889C83.9849 72.4775 84.6881 76.9639 86.3816 80.6481C88.1148 84.1441 90.4224 85.9169 93.3044 85.9763C96.4142 85.9268 99.2466 83.8965 101.812 79.8657C104.367 75.6566 106.011 70.5265 106.734 64.4554C107.001 57.9982 106.13 52.5016 104.129 47.9657C102.109 43.6476 99.4645 41.4292 96.2062 41.3103" fill="#118DF0"/>
<path d="M118.935 38.9334C117.341 36.3188 114.29 35.0413 109.784 35.1205C104.803 35.3582 99.9597 36.8437 95.2653 39.5772C94.7206 39.9337 94.7008 40.0328 95.2059 39.8644C99.1278 38.666 102.307 37.9332 104.753 37.6757C107.209 37.3885 109.358 37.3984 111.2 37.7153C115.32 38.4977 116.955 40.2903 116.093 43.1029C114.994 46.2721 111.874 49.4215 106.744 52.5511C99.6923 56.4829 93.8788 58.6221 89.2933 58.9589C83.6581 59.3154 80.9247 57.9289 81.093 54.8092C81.7962 50.2931 86.2529 45.4303 94.4829 40.211C94.7008 39.9238 94.4235 39.9436 93.6609 40.2705C92.6903 40.6171 91.6702 41.0528 90.6006 41.5777C85.8765 43.9646 82.331 46.8168 79.9937 50.1247C77.8347 53.3731 77.4484 56.265 78.835 58.7806C80.4295 61.4447 83.6086 62.8808 88.3822 63.0887C93.3044 63.1977 98.5732 62.0587 104.189 59.6422C109.913 56.6414 114.241 53.1454 117.163 49.1442C119.896 45.2322 120.49 41.8352 118.965 38.9532" fill="#118DF0"/>
<path d="M132.404 57.4634C133.87 54.7696 133.454 51.4914 131.127 47.6289C128.423 43.4297 124.719 39.9832 120.005 37.2894C119.421 36.9923 119.331 37.022 119.728 37.3785C122.728 40.1714 124.947 42.5681 126.403 44.5489C127.878 46.5395 128.948 48.4014 129.592 50.1544C130.978 54.1159 130.236 56.4235 127.373 57.0771C124.075 57.711 119.797 56.582 114.518 53.7099C107.595 49.5701 102.832 45.5987 100.237 41.8055C97.1173 37.1012 96.9489 34.041 99.7319 32.6247C103.981 30.9609 110.418 32.3969 119.054 36.923C119.411 36.9626 119.262 36.7348 118.589 36.2396C117.806 35.5662 116.915 34.9026 115.925 34.239C111.498 31.3372 107.259 29.7031 103.218 29.3268C99.3258 29.0792 96.632 30.1884 95.1366 32.6544C93.6213 35.3681 93.9679 38.8443 96.1764 43.0732C98.5434 47.3913 102.168 51.3825 107.061 55.037C112.518 58.4934 117.717 60.4939 122.639 61.0188C127.393 61.4249 130.642 60.2463 132.365 57.4832" fill="#118DF0"/>
<path d="M123.095 78.3901C126.165 78.3207 128.79 76.3103 130.968 72.3686C133.256 67.9317 134.385 62.9996 134.365 57.5723C134.326 56.9187 134.256 56.8593 134.148 57.3842C133.226 61.3754 132.266 64.4951 131.266 66.7531C130.285 69.0211 129.196 70.883 128.007 72.319C125.274 75.4982 122.907 76.0131 120.896 73.864C118.698 71.3287 117.529 67.0502 117.39 61.0486C117.509 52.977 118.569 46.8763 120.569 42.7266C123.075 37.6757 125.65 35.992 128.265 37.6955C131.83 40.5379 133.811 46.8366 134.207 56.5721C134.346 56.9088 134.474 56.6612 134.573 55.8293C134.762 54.8191 134.89 53.7099 134.97 52.5313C135.267 47.2427 134.563 42.7563 132.87 39.0721C131.137 35.5761 128.829 33.8033 125.947 33.7439C122.837 33.7934 120.005 35.8237 117.44 39.8545C114.885 44.0636 113.241 49.1937 112.518 55.2648C112.25 61.722 113.122 67.2186 115.122 71.7545C117.143 76.0726 119.787 78.291 123.045 78.4099" fill="#118DF0"/>
<path d="M86.8471 62.2568C85.3814 64.9506 85.7973 68.2288 88.1247 72.0913C90.8284 76.2905 94.5324 79.737 99.2466 82.4308C99.831 82.7279 99.9201 82.6982 99.5239 82.3417C96.5231 79.5488 94.3047 77.1521 92.8488 75.1713C91.3731 73.1807 90.3035 71.3188 89.6598 69.5658C88.2733 65.6043 89.016 63.2967 91.8782 62.6431C95.1762 62.0092 99.4546 63.1382 104.733 66.0103C111.656 70.1501 116.42 74.1215 119.015 77.9147C122.134 82.619 122.303 85.6792 119.52 87.0955C115.271 88.7593 108.833 87.3233 100.197 82.7972C99.8409 82.7576 99.9894 82.9854 100.663 83.4806C101.445 84.154 102.337 84.8176 103.327 85.4811C107.754 88.383 111.993 90.0171 116.034 90.3934C119.926 90.641 122.62 89.5318 124.115 87.0658C125.63 84.3521 125.284 80.8759 123.075 76.647C120.708 72.3289 117.083 68.3377 112.191 64.6832C106.734 61.2268 101.534 59.2263 96.6122 58.7014C91.8584 58.2953 88.61 59.4739 86.8867 62.237" fill="#118DF0"/>
<path d="M100.316 80.7868C101.911 83.4014 104.961 84.679 109.467 84.5997C114.449 84.362 119.292 82.8765 123.986 80.143C124.531 79.7865 124.551 79.6875 124.046 79.8558C120.124 81.0542 116.945 81.7871 114.498 82.0445C112.042 82.3318 109.893 82.3219 108.051 82.0049C103.931 81.2225 102.297 79.43 103.159 76.6173C104.258 73.4481 107.378 70.2987 112.508 67.1691C119.559 63.2373 125.373 61.0981 129.958 60.7613C135.593 60.4048 138.327 61.7913 138.159 64.911C137.475 69.4172 133.019 74.28 124.779 79.4993C124.561 79.7865 124.838 79.7667 125.601 79.4399C126.571 79.0932 127.591 78.6575 128.661 78.1326C133.385 75.7458 136.93 72.8935 139.268 69.5856C141.427 66.3372 141.813 63.4453 140.427 60.9297C138.832 58.2656 135.653 56.8296 130.889 56.6216C125.967 56.5126 120.698 57.6516 115.083 60.0681C109.358 63.0689 105.03 66.565 102.109 70.5661C99.3754 74.4781 98.7812 77.8751 100.306 80.7571" fill="#118DF0"/>
<path d="M187.812 47.9384C187.865 51.0619 187.865 77.5846 187.865 79.7552C187.865 80.5492 187.97 80.7081 188.765 80.7081C190.564 80.7081 190.564 80.761 192.364 80.7081C192.735 80.7081 193.37 80.7081 193.688 80.5493C194.058 80.3904 193.847 67.8967 193.847 67.2085C193.847 66.4673 195.329 66.6261 195.753 66.6261C204.593 66.6261 207.029 60.2734 207.029 54.8735C207.029 50.0031 206.076 41.0033 195.064 41.0033C193.158 41.0033 191.2 41.0563 189.347 41.0563C188.923 41.0563 188.394 41.0033 188.023 41.268C187.6 41.5857 187.759 46.2973 187.812 47.9384ZM193.9 58.844C193.9 57.6793 193.847 50.7442 193.9 48.6266C193.9 48.309 193.847 47.9384 193.9 47.5678C194.058 46.9855 194.747 46.9855 195.276 47.0384C198.347 47.2502 200.094 49.9501 200.358 52.8089C200.57 54.8735 200.305 57.944 198.823 59.5851C197.764 60.6969 196.388 61.3851 194.588 61.3851C194.217 61.3851 193.847 60.9616 193.847 60.591C193.847 60.0087 193.847 59.4263 193.9 58.844Z" fill="#ECECDA"/>
<path d="M231.881 41.0033L212.017 80.7316H251.745L231.881 41.0033ZM231.881 48.4072L243.077 70.7995H228.087L229.742 67.4887H237.719L231.881 55.8091L222.731 74.1104H244.732L246.388 77.4207H217.374L231.881 48.4072Z" fill="#ECECDA"/>
<path d="M257.335 48.1932C257.388 51.2896 257.388 77.5827 257.388 79.7344C257.388 80.5217 257.493 80.6791 258.28 80.6791C260.064 80.6791 260.064 80.7316 261.849 80.6791C262.216 80.6791 262.846 80.6791 263.161 80.5217C263.528 80.3642 263.318 67.9787 263.318 67.2964C263.318 66.5617 264.788 66.7191 265.208 66.7191C273.972 66.7191 276.386 60.4214 276.386 55.0683C276.386 50.24 275.441 41.3182 264.525 41.3182C262.636 41.3182 260.694 41.3707 258.857 41.3707C258.438 41.3707 257.913 41.3182 257.545 41.5806C257.126 41.8955 257.283 46.5663 257.335 48.1932ZM263.371 59.0044C263.371 57.8498 263.318 50.9748 263.371 48.8755C263.371 48.5606 263.318 48.1932 263.371 47.8259C263.528 47.2486 264.21 47.2486 264.735 47.3011C267.779 47.511 269.511 50.1875 269.773 53.0215C269.983 55.0683 269.721 58.1122 268.252 59.7391C267.202 60.8412 265.837 61.5235 264.053 61.5235C263.686 61.5235 263.318 61.1036 263.318 60.7362C263.318 60.159 263.318 59.5817 263.371 59.0044ZM281.687 69.9205H281.634C281.634 71.2325 281.582 72.597 281.634 73.9615C281.687 75.6409 281.792 77.3203 281.897 78.9997C281.897 79.577 282.054 79.7344 282.579 79.8394C283.681 80.1018 284.731 80.1543 285.833 80.1543C288.667 80.0493 291.501 80.2593 294.335 80.1543C295.489 80.1018 296.014 80.2068 297.169 79.9968C298.218 79.7869 298.586 79.2096 298.586 77.6352C298.481 76.6381 298.533 76.2182 298.533 75.0111C298.533 73.2793 297.326 72.702 296.276 72.7544C295.542 72.8069 292.025 72.702 290.609 72.702C288.247 72.7544 288.614 73.0693 288.614 70.6027C288.614 68.6084 288.667 66.0369 288.667 63.9901C288.667 62.888 288.772 62.5206 289.821 62.5206H296.381C297.431 62.6781 298.166 61.9433 298.166 60.8412C298.166 59.7391 298.271 59.6866 298.271 58.5845L298.113 57.0101C298.008 56.1179 297.693 55.803 296.801 55.803C296.224 55.803 295.647 55.8555 295.069 55.908C292.813 56.0654 291.763 55.7505 289.559 55.908C288.824 55.908 288.719 55.803 288.667 55.1208C288.457 53.074 288.667 50.8173 288.877 48.7705C288.929 47.9308 289.139 47.7734 289.926 47.7209L297.326 47.6684C298.323 47.5635 298.638 47.616 298.586 46.6188C298.481 45.0969 298.638 43.5224 298.481 42.0005C298.376 41.1608 298.113 41.0033 297.169 41.0033C295.594 41.0558 295.227 41.0558 293.652 41.1608C292.078 41.2133 285.78 41.2133 284.258 41.2133C282.054 41.2133 281.897 41.0558 281.844 43.7323C281.739 45.8316 281.792 47.9833 281.792 50.1351C281.792 53.8087 281.582 66.9815 281.687 69.9205ZM310.341 76.743C310.341 75.3785 310.341 66.7716 310.394 66.0893C310.446 65.9319 310.551 65.617 310.761 65.617C310.971 65.617 311.076 65.722 311.129 65.8794C313.228 69.9729 315.065 74.0665 316.954 78.055C317.216 78.6323 317.794 80.3117 317.951 80.4692C318.161 80.7841 318.528 80.6791 318.843 80.6791L324.616 80.7316C325.299 80.7316 325.456 80.3117 325.299 79.7344C324.879 78.16 321.887 72.597 321.205 71.2325C320.733 70.1829 317.584 64.095 317.479 63.6227C317.374 63.4128 318.161 63.0454 318.266 62.888C320.785 60.6313 323.042 58.3221 323.514 54.8059C324.039 51.3421 323.252 47.5635 320.995 44.782C319.263 42.7352 317.007 41.5281 314.33 41.3707C312.703 41.2657 311.129 41.4232 309.502 41.3707C308.085 41.3182 307.088 41.3182 305.303 41.3182C304.464 41.3182 303.939 41.7905 303.886 42.6827V43.3125C303.781 47.3535 303.886 51.3946 303.939 55.3832C303.939 61.471 303.834 77.5302 303.834 79.8394C303.834 80.5217 303.939 80.6791 304.569 80.6791C304.936 80.6791 305.356 80.7316 305.723 80.7316C307.193 80.7316 308.085 80.6791 309.607 80.6791C310.761 80.6791 310.341 78.7898 310.341 76.743ZM310.341 56.2754L310.394 50.9748C310.446 50.1875 310.184 48.6131 310.919 48.0358C311.916 47.3011 313.963 48.0358 314.855 48.6656C317.479 50.4499 317.269 54.8584 315.852 57.325C315.17 58.4796 314.015 59.1618 312.703 59.5292C311.916 59.7391 310.446 60.0015 310.394 58.742C310.394 57.9023 310.341 56.2754 310.341 56.2754ZM330.652 69.9205H330.599C330.599 71.2325 330.547 72.597 330.599 73.9615C330.652 75.6409 330.704 77.3203 330.809 78.9997C330.862 79.577 330.967 79.7344 331.544 79.8394C332.593 80.1018 333.696 80.1543 334.798 80.1543C337.632 80.0493 337.632 79.577 337.632 77.6352C337.527 76.6381 337.579 76.2182 337.579 75.0111C337.579 73.2793 337.527 73.0693 337.527 70.6027C337.579 68.6084 337.579 66.0369 337.579 63.9901C337.579 62.888 337.737 62.5206 338.734 62.5206H346.396C347.498 62.6781 347.078 61.9433 347.078 60.8412C347.078 59.7391 347.236 59.6866 347.183 58.5845C347.183 58.0597 347.078 57.5349 347.026 57.0101C346.921 56.1179 346.606 55.803 345.714 55.803C345.136 55.803 345.661 55.8555 345.136 55.908C342.88 56.0654 340.728 55.7505 338.471 55.908C337.737 55.908 337.632 55.803 337.579 55.1208C337.422 53.074 337.579 50.8173 337.789 48.7705C337.894 47.9308 338.051 47.7734 338.839 47.7209L346.239 47.6684C347.288 47.5635 347.603 47.616 347.498 46.6188C347.393 45.0969 347.603 43.5224 347.393 42.0005C347.288 41.1608 347.078 41.0033 346.134 41.0033C344.559 41.0558 344.192 41.0558 342.617 41.1608C341.043 41.2133 334.693 41.2133 333.171 41.2133C331.019 41.2133 330.809 41.0558 330.757 43.7323C330.704 45.8316 330.704 47.9833 330.704 50.1351C330.704 53.8087 330.494 66.9815 330.652 69.9205ZM352.746 46.4614C352.694 49.7152 353.009 73.4892 352.956 75.2211C352.956 76.848 352.956 78.4749 353.009 80.1018C353.009 80.3642 353.166 80.6266 353.428 80.6266C357.102 80.7841 360.723 80.4692 364.397 80.5217C365.604 80.5741 366.811 80.5217 367.966 80.5217C369.12 80.4692 369.225 79.9968 369.173 79.0522C369.12 77.5827 369.12 76.2707 369.12 74.8537C369.068 74.119 368.648 73.8565 368.018 73.8565C365.867 73.909 363.715 73.8041 361.563 73.909C361.196 73.9615 360.828 73.9615 360.461 73.9615C359.831 73.909 359.674 73.7516 359.621 73.0693V72.2821C359.464 67.9262 359.779 63.4128 359.779 59.0569C359.726 55.3832 359.779 52.0769 359.726 48.823C359.726 47.406 359.726 45.989 359.674 44.6245C359.621 43.7848 359.674 42.8926 359.464 42.053C359.359 41.7381 359.201 41.3182 358.834 41.3182H353.901C353.061 41.3182 352.799 41.8955 352.746 42.7352V46.4614ZM402.079 50.9748C403.181 54.2286 403.443 57.7448 403.443 61.2086C403.443 64.095 402.918 66.8766 402.184 69.6581C401.239 72.9644 399.664 75.9558 396.83 77.8976C394.731 79.4196 392.527 80.4167 389.955 80.6791C389.588 80.6791 389.273 80.7316 388.906 80.7316C388.591 80.7316 388.276 80.6791 387.909 80.6791C385.337 80.4167 383.133 79.4196 380.981 77.8976C378.2 75.9558 376.573 72.9644 375.68 69.6581C374.893 66.8766 374.421 64.095 374.421 61.2086C374.421 57.7448 374.683 54.2286 375.785 50.9748C377.727 45.3593 383.08 41.3707 388.906 41.2657C394.731 41.3707 400.084 45.3593 402.079 50.9748ZM396.988 65.0397C397.513 61.8384 397.303 58.5845 396.673 55.3832C396.043 52.4967 394.784 49.6627 392.37 47.9308C391.95 47.616 391.477 47.3535 391.005 47.1961C390.323 46.8812 389.588 46.7763 388.906 46.7763C388.224 46.7763 387.541 46.8812 386.859 47.1961C386.334 47.3535 385.914 47.616 385.494 47.9308C383.028 49.6627 381.768 52.4967 381.191 55.3832C380.561 58.5845 380.351 61.8384 380.876 65.0397C381.401 67.9262 382.451 71.8098 385.18 73.2793C386.334 73.909 387.594 74.3289 388.906 74.3814C390.218 74.3289 391.53 73.909 392.684 73.2793C395.413 71.8098 396.463 67.9262 396.988 65.0397ZM410.843 41.2657C410.79 41.2657 410.371 41.2133 409.951 41.2133C409.216 41.2133 408.849 41.4757 408.744 42.1579C408.691 42.5253 408.691 42.9451 408.796 43.26C409.216 44.8869 417.351 78.5274 417.77 79.9968C417.928 80.6266 417.98 80.6266 418.61 80.6266H422.861H423.176C423.858 80.6266 423.911 79.682 424.068 78.7898C425.118 73.3842 426.43 68.0311 427.689 62.8355C427.742 62.5206 427.847 62.2057 427.952 61.9433C428.004 61.8384 428.109 61.7859 428.162 61.7859C428.267 61.7859 428.372 61.8384 428.424 61.9433C428.687 62.5731 431.835 77.4777 432.465 80.0493C432.57 80.3642 432.728 80.6266 433.147 80.6266H437.346C438.133 80.6266 438.658 80.2068 438.815 79.4196C439.498 75.9558 440.39 72.0722 441.229 68.6609C442.279 64.4624 443.381 60.3164 444.483 56.1179C445.323 52.7591 446.215 49.0854 447.265 45.7791C447.632 44.677 448.997 41.3707 446.688 41.3707C445.533 41.3707 444.536 41.2657 443.381 41.3182C443.014 41.3182 442.646 41.3182 442.279 41.3707C441.702 41.3707 441.282 41.6856 441.072 42.2104C440.915 42.7352 440.652 43.3125 440.495 43.8373C439.708 47.1961 438.973 51.0272 438.028 54.3335C437.346 56.8002 436.611 59.2143 436.034 61.6809C436.034 61.7334 435.824 62.5206 435.614 62.5206C435.247 62.5206 435.142 61.9433 435.037 61.4185C434.984 61.2086 432.36 46.1465 431.993 43.2075C431.888 42.0529 431.52 41.3707 430.313 41.3182H429.684C428.319 41.4232 427.584 41.2657 426.22 41.3707C425.118 41.4232 424.96 41.5281 424.698 42.5253C424.645 42.7352 424.645 42.9976 424.593 43.26C424.173 45.5692 421.444 60.4738 421.077 62.2582C421.077 62.3632 421.024 62.5731 420.867 62.5731C420.657 62.5731 420.604 62.3107 420.552 62.2057C420.499 61.9958 415.934 42.7352 415.776 42.2629C415.566 41.6331 415.094 41.2657 414.359 41.2657C413.205 41.3182 412.312 41.2657 410.843 41.2657Z" fill="#ECECDA"/>
</g>
<defs>
<clipPath id="clip0_2_3">
<rect width="396" height="102.631" fill="white" transform="translate(52 9)"/>
</clipPath>
</defs>
</svg>
