<svg width="96" height="96" viewBox="0 0 96 96" fill="none" xmlns="http://www.w3.org/2000/svg">
<rect width="96" height="96" rx="24" fill="#118DF0"/>
<path d="M34.8719 28.3384C31.6924 28.4102 28.9744 30.4923 26.718 34.5743C24.3488 39.1692 23.1796 44.2769 23.2001 49.8974C23.2411 50.5743 23.3129 50.6359 23.4257 50.0923C24.3796 45.959 25.3744 42.7282 26.4103 40.3897C27.4257 38.041 28.5539 36.1128 29.7847 34.6256C32.6155 31.3333 35.0667 30.8 37.1488 33.0256C39.4257 35.6513 40.636 40.082 40.7796 46.2974C40.6565 54.6564 39.5591 60.9743 37.4873 65.2718C34.8924 70.5025 32.2257 72.2461 29.518 70.482C25.8257 67.5384 23.7744 61.0154 23.3642 50.9333C23.2206 50.5846 23.0873 50.841 22.9847 51.7025C22.7898 52.7487 22.6565 53.8974 22.5744 55.1179C22.2667 60.5949 22.995 65.241 24.7488 69.0564C26.5437 72.6769 28.9334 74.5128 31.918 74.5743C35.1385 74.5231 38.0719 72.4205 40.7283 68.2461C43.3744 63.8872 45.077 58.5743 45.8257 52.2872C46.1026 45.6 45.2001 39.9077 43.1283 35.2102C41.036 30.7384 38.2975 28.441 34.9232 28.3179" fill="#0E2F56"/>
<path d="M58.4616 25.8564C56.8103 23.1487 53.6513 21.8256 48.9846 21.9076C43.8257 22.1538 38.8103 23.6923 33.9487 26.523C33.3846 26.8923 33.3641 26.9948 33.8872 26.8205C37.9487 25.5794 41.241 24.8205 43.7744 24.5538C46.318 24.2564 48.5436 24.2666 50.4513 24.5948C54.718 25.4051 56.4103 27.2615 55.518 30.1743C54.3795 33.4564 51.1487 36.7179 45.8359 39.9589C38.5334 44.0307 32.5128 46.2461 27.7641 46.5948C21.9282 46.9641 19.0975 45.5282 19.2718 42.2974C20 37.6205 24.6154 32.5846 33.1385 27.1794C33.3641 26.882 33.0769 26.9025 32.2872 27.241C31.2821 27.6 30.2257 28.0512 29.118 28.5948C24.2257 31.0666 20.5539 34.0205 18.1334 37.4461C15.8975 40.8102 15.4975 43.8051 16.9334 46.4102C18.5846 49.1692 21.8769 50.6564 26.8205 50.8717C31.918 50.9846 37.3744 49.8051 43.1898 47.3025C49.118 44.1948 53.6 40.5743 56.6257 36.4307C59.4564 32.3794 60.0718 28.8615 58.4923 25.8769" fill="#0E2F56"/>
<path d="M72.4104 45.0461C73.9283 42.2564 73.4975 38.8615 71.0873 34.8615C68.2873 30.5128 64.4514 26.9435 59.5693 24.1538C58.9642 23.8461 58.8719 23.8769 59.2821 24.2461C62.3898 27.1384 64.6873 29.6205 66.195 31.6718C67.7232 33.7333 68.8309 35.6615 69.4975 37.4769C70.9334 41.5794 70.1642 43.9692 67.2001 44.6461C63.7847 45.3025 59.3539 44.1333 53.8873 41.1589C46.718 36.8718 41.7847 32.7589 39.0975 28.8307C35.8668 23.9589 35.6924 20.7897 38.5745 19.323C42.9745 17.6 49.6411 19.0871 58.5847 23.7743C58.9539 23.8153 58.8001 23.5794 58.1027 23.0666C57.2924 22.3692 56.3693 21.682 55.3437 20.9948C50.7591 17.9897 46.3693 16.2974 42.1847 15.9077C38.1539 15.6512 35.3642 16.8 33.8155 19.3538C32.2463 22.1641 32.6052 25.7641 34.8924 30.1435C37.3437 34.6153 41.0975 38.7487 46.1642 42.5333C51.8155 46.1128 57.2001 48.1846 62.2975 48.7282C67.2206 49.1487 70.5847 47.9282 72.3693 45.0666" fill="#0E2F56"/>
<path d="M62.7692 66.7179C65.9487 66.6461 68.6667 64.564 70.9231 60.482C73.2923 55.8871 74.4615 50.7794 74.441 45.1589C74.4 44.482 74.3282 44.4205 74.2154 44.964C73.2615 49.0974 72.2667 52.3281 71.2308 54.6666C70.2154 57.0153 69.0872 58.9435 67.8564 60.4307C65.0256 63.723 62.5744 64.2563 60.4923 62.0307C58.2154 59.4051 57.0051 54.9743 56.8615 48.7589C56.9846 40.3999 58.082 34.082 60.1538 29.7846C62.7487 24.5538 65.4154 22.8102 68.1231 24.5743C71.8154 27.5179 73.8667 34.041 74.2769 44.123C74.4205 44.4717 74.5538 44.2153 74.6564 43.3538C74.8513 42.3076 74.9846 41.1589 75.0667 39.9384C75.3744 34.4615 74.6462 29.8153 72.8923 25.9999C71.0974 22.3794 68.7077 20.5435 65.7231 20.482C62.5026 20.5333 59.5692 22.6358 56.9128 26.8102C54.2667 31.1692 52.5641 36.482 51.8154 42.7692C51.5385 49.4564 52.441 55.1487 54.5128 59.8461C56.6051 64.3179 59.3436 66.6153 62.7179 66.7384" fill="#0E2F56"/>
<path d="M25.2307 50.0102C23.7127 52.8 24.1435 56.1949 26.5538 60.1949C29.3538 64.5436 33.1897 68.1128 38.0717 70.9025C38.6768 71.2102 38.7692 71.1795 38.3589 70.8102C35.2512 67.9179 32.9538 65.4359 31.4461 63.3846C29.9179 61.3231 28.8102 59.3949 28.1435 57.5795C26.7076 53.4769 27.4768 51.0872 30.441 50.4102C33.8563 49.7538 38.2871 50.9231 43.7538 53.8974C50.923 58.1846 55.8563 62.2974 58.5435 66.2256C61.7743 71.0974 61.9486 74.2667 59.0666 75.7333C54.6666 77.4564 47.9999 75.9692 39.0563 71.282C38.6871 71.241 38.841 71.4769 39.5384 71.9897C40.3486 72.6872 41.2717 73.3743 42.2974 74.0615C46.882 77.0666 51.2717 78.759 55.4563 79.1487C59.4871 79.4051 62.2768 78.2564 63.8256 75.7025C65.3948 72.8923 65.0358 69.2923 62.7486 64.9128C60.2974 60.441 56.5435 56.3077 51.4768 52.5231C45.8256 48.9436 40.441 46.8718 35.3435 46.3282C30.4204 45.9077 27.0563 47.1282 25.2717 49.9897" fill="#0E2F56"/>
<path d="M39.1794 69.2C40.8307 71.9076 43.9897 73.2307 48.6563 73.1487C53.8153 72.9025 58.8307 71.3641 63.6922 68.5333C64.2563 68.1641 64.2768 68.0615 63.7538 68.2359C59.6922 69.4769 56.3999 70.2359 53.8666 70.5025C51.323 70.8 49.0974 70.7897 47.1897 70.4615C42.923 69.6512 41.2307 67.7948 42.123 64.882C43.2615 61.6 46.4922 58.3384 51.8051 55.0974C59.1076 51.0256 65.1281 48.8102 69.8768 48.4615C75.7127 48.0923 78.5435 49.5282 78.3692 52.7589C77.6615 57.4256 73.0461 62.4615 64.5127 67.8666C64.2871 68.1641 64.5743 68.1435 65.364 67.8051C66.3692 67.4461 67.4256 66.9948 68.5333 66.4512C73.4256 63.9794 77.0974 61.0256 79.5179 57.6C81.7538 54.2359 82.1538 51.241 80.7179 48.6359C79.0666 45.8769 75.7743 44.3897 70.841 44.1743C65.7435 44.0615 60.2871 45.241 54.4717 47.7435C48.5435 50.8512 44.0615 54.4718 41.0358 58.6153C38.2051 62.6666 37.5897 66.1846 39.1692 69.1692" fill="#0E2F56"/>
<path d="M34.8719 28.3384C31.6924 28.4102 28.9744 30.4923 26.718 34.5743C24.3488 39.1692 23.1796 44.2769 23.2001 49.8974C23.2411 50.5743 23.3129 50.6359 23.4257 50.0923C24.3796 45.959 25.3744 42.7282 26.4103 40.3897C27.4257 38.041 28.5539 36.1128 29.7847 34.6256C32.6155 31.3333 35.0667 30.8 37.1488 33.0256C39.4257 35.6513 40.636 40.082 40.7796 46.2974C40.6565 54.6564 39.5591 60.9743 37.4873 65.2718C34.8924 70.5025 32.2257 72.2461 29.518 70.482C25.8257 67.5384 23.7744 61.0154 23.3642 50.9333C23.2206 50.5846 23.0873 50.841 22.9847 51.7025C22.7898 52.7487 22.6565 53.8974 22.5744 55.1179C22.2667 60.5949 22.995 65.241 24.7488 69.0564C26.5437 72.6769 28.9334 74.5128 31.918 74.5743C35.1385 74.5231 38.0719 72.4205 40.7283 68.2461C43.3744 63.8872 45.077 58.5743 45.8257 52.2872C46.1026 45.6 45.2001 39.9077 43.1283 35.2102C41.036 30.7384 38.2975 28.441 34.9232 28.3179" fill="#0E2F56"/>
<path d="M58.4616 25.8564C56.8103 23.1487 53.6513 21.8256 48.9846 21.9076C43.8257 22.1538 38.8103 23.6923 33.9487 26.523C33.3846 26.8923 33.3641 26.9948 33.8872 26.8205C37.9487 25.5794 41.241 24.8205 43.7744 24.5538C46.318 24.2564 48.5436 24.2666 50.4513 24.5948C54.718 25.4051 56.4103 27.2615 55.518 30.1743C54.3795 33.4564 51.1487 36.7179 45.8359 39.9589C38.5334 44.0307 32.5128 46.2461 27.7641 46.5948C21.9282 46.9641 19.0975 45.5282 19.2718 42.2974C20 37.6205 24.6154 32.5846 33.1385 27.1794C33.3641 26.882 33.0769 26.9025 32.2872 27.241C31.2821 27.6 30.2257 28.0512 29.118 28.5948C24.2257 31.0666 20.5539 34.0205 18.1334 37.4461C15.8975 40.8102 15.4975 43.8051 16.9334 46.4102C18.5846 49.1692 21.8769 50.6564 26.8205 50.8717C31.918 50.9846 37.3744 49.8051 43.1898 47.3025C49.118 44.1948 53.6 40.5743 56.6257 36.4307C59.4564 32.3794 60.0718 28.8615 58.4923 25.8769" fill="#0E2F56"/>
<path d="M72.4104 45.0461C73.9283 42.2564 73.4975 38.8615 71.0873 34.8615C68.2873 30.5128 64.4514 26.9435 59.5693 24.1538C58.9642 23.8461 58.8719 23.8769 59.2821 24.2461C62.3898 27.1384 64.6873 29.6205 66.195 31.6718C67.7232 33.7333 68.8309 35.6615 69.4975 37.4769C70.9334 41.5794 70.1642 43.9692 67.2001 44.6461C63.7847 45.3025 59.3539 44.1333 53.8873 41.1589C46.718 36.8718 41.7847 32.7589 39.0975 28.8307C35.8668 23.9589 35.6924 20.7897 38.5745 19.323C42.9745 17.6 49.6411 19.0871 58.5847 23.7743C58.9539 23.8153 58.8001 23.5794 58.1027 23.0666C57.2924 22.3692 56.3693 21.682 55.3437 20.9948C50.7591 17.9897 46.3693 16.2974 42.1847 15.9077C38.1539 15.6512 35.3642 16.8 33.8155 19.3538C32.2463 22.1641 32.6052 25.7641 34.8924 30.1435C37.3437 34.6153 41.0975 38.7487 46.1642 42.5333C51.8155 46.1128 57.2001 48.1846 62.2975 48.7282C67.2206 49.1487 70.5847 47.9282 72.3693 45.0666" fill="#0E2F56"/>
<path d="M62.7692 66.7179C65.9487 66.6461 68.6667 64.564 70.9231 60.482C73.2923 55.8871 74.4615 50.7794 74.441 45.1589C74.4 44.482 74.3282 44.4205 74.2154 44.964C73.2615 49.0974 72.2667 52.3281 71.2308 54.6666C70.2154 57.0153 69.0872 58.9435 67.8564 60.4307C65.0256 63.723 62.5744 64.2563 60.4923 62.0307C58.2154 59.4051 57.0051 54.9743 56.8615 48.7589C56.9846 40.3999 58.082 34.082 60.1538 29.7846C62.7487 24.5538 65.4154 22.8102 68.1231 24.5743C71.8154 27.5179 73.8667 34.041 74.2769 44.123C74.4205 44.4717 74.5538 44.2153 74.6564 43.3538C74.8513 42.3076 74.9846 41.1589 75.0667 39.9384C75.3744 34.4615 74.6462 29.8153 72.8923 25.9999C71.0974 22.3794 68.7077 20.5435 65.7231 20.482C62.5026 20.5333 59.5692 22.6358 56.9128 26.8102C54.2667 31.1692 52.5641 36.482 51.8154 42.7692C51.5385 49.4564 52.441 55.1487 54.5128 59.8461C56.6051 64.3179 59.3436 66.6153 62.7179 66.7384" fill="#0E2F56"/>
<path d="M25.2307 50.0102C23.7127 52.8 24.1435 56.1949 26.5538 60.1949C29.3538 64.5436 33.1897 68.1128 38.0717 70.9025C38.6768 71.2102 38.7692 71.1795 38.3589 70.8102C35.2512 67.9179 32.9538 65.4359 31.4461 63.3846C29.9179 61.3231 28.8102 59.3949 28.1435 57.5795C26.7076 53.4769 27.4768 51.0872 30.441 50.4102C33.8563 49.7538 38.2871 50.9231 43.7538 53.8974C50.923 58.1846 55.8563 62.2974 58.5435 66.2256C61.7743 71.0974 61.9486 74.2667 59.0666 75.7333C54.6666 77.4564 47.9999 75.9692 39.0563 71.282C38.6871 71.241 38.841 71.4769 39.5384 71.9897C40.3486 72.6872 41.2717 73.3743 42.2974 74.0615C46.882 77.0666 51.2717 78.759 55.4563 79.1487C59.4871 79.4051 62.2768 78.2564 63.8256 75.7025C65.3948 72.8923 65.0358 69.2923 62.7486 64.9128C60.2974 60.441 56.5435 56.3077 51.4768 52.5231C45.8256 48.9436 40.441 46.8718 35.3435 46.3282C30.4204 45.9077 27.0563 47.1282 25.2717 49.9897" fill="#0E2F56"/>
<path d="M39.1794 69.2C40.8307 71.9076 43.9897 73.2307 48.6563 73.1487C53.8153 72.9025 58.8307 71.3641 63.6922 68.5333C64.2563 68.1641 64.2768 68.0615 63.7538 68.2359C59.6922 69.4769 56.3999 70.2359 53.8666 70.5025C51.323 70.8 49.0974 70.7897 47.1897 70.4615C42.923 69.6512 41.2307 67.7948 42.123 64.882C43.2615 61.6 46.4922 58.3384 51.8051 55.0974C59.1076 51.0256 65.1281 48.8102 69.8768 48.4615C75.7127 48.0923 78.5435 49.5282 78.3692 52.7589C77.6615 57.4256 73.0461 62.4615 64.5127 67.8666C64.2871 68.1641 64.5743 68.1435 65.364 67.8051C66.3692 67.4461 67.4256 66.9948 68.5333 66.4512C73.4256 63.9794 77.0974 61.0256 79.5179 57.6C81.7538 54.2359 82.1538 51.241 80.7179 48.6359C79.0666 45.8769 75.7743 44.3897 70.841 44.1743C65.7435 44.0615 60.2871 45.241 54.4717 47.7435C48.5435 50.8512 44.0615 54.4718 41.0358 58.6153C38.2051 62.6666 37.5897 66.1846 39.1692 69.1692" fill="#0E2F56"/>
</svg>
