<svg width="396" height="103" viewBox="0 0 396 103" fill="none" xmlns="http://www.w3.org/2000/svg">
<g clip-path="url(#clip0_2_162)">
<path d="M104.838 0H8.8285C3.95266 0 0 3.95266 0 8.8285V93.8028C0 98.6787 3.95266 102.631 8.8285 102.631H104.838C109.714 102.631 113.667 98.6787 113.667 93.8028V8.8285C113.667 3.95266 109.714 0 104.838 0Z" fill="black"/>
<path d="M91.5957 16.5534H22.0712V86.0779H91.5957V16.5534Z" fill="black"/>
<path d="M44.1566 32.3302C41.0864 32.3995 38.4619 34.4099 36.2831 38.3516C33.9953 42.7885 32.8663 47.7206 32.8861 53.1479C32.9257 53.8015 32.9951 53.8609 33.104 53.336C34.025 49.3448 34.9857 46.2251 35.986 43.9671C36.9665 41.6991 38.0559 39.8372 39.2443 38.4012C41.9778 35.2221 44.3448 34.7071 46.3552 36.8562C48.5539 39.3915 49.7225 43.67 49.8612 49.6717C49.7423 57.7432 48.6826 63.844 46.6821 67.9936C44.1764 73.0446 41.6014 74.7282 38.9868 73.0247C35.4215 70.1824 33.4407 63.8836 33.0446 54.1482C32.9059 53.8114 32.7772 54.059 32.6781 54.8909C32.49 55.9011 32.3612 57.0103 32.282 58.1889C31.9849 63.4775 32.688 67.9639 34.3816 71.6481C36.1147 75.1441 38.4223 76.9169 41.3043 76.9763C44.4141 76.9268 47.2466 74.8966 49.8117 70.8657C52.3668 66.6566 54.0109 61.5265 54.7338 55.4555C55.0012 48.9982 54.1297 43.5016 52.1291 38.9657C50.1088 34.6476 47.4645 32.4292 44.2061 32.3103" fill="white"/>
<path d="M66.9353 29.9334C65.3408 27.3188 62.2904 26.0413 57.7842 26.1205C52.8026 26.3582 47.9597 27.8437 43.2653 30.5772C42.7206 30.9337 42.7008 31.0328 43.2059 30.8644C47.1278 29.666 50.3069 28.9332 52.7531 28.6757C55.2092 28.3885 57.3584 28.3984 59.2005 28.7153C63.3204 29.4977 64.9545 31.2903 64.0929 34.1029C62.9936 37.2721 59.8739 40.4215 54.7438 43.5511C47.6923 47.4829 41.8788 49.6221 37.2933 49.9589C31.6581 50.3154 28.9246 48.9289 29.093 45.8092C29.7962 41.2931 34.2529 36.4303 42.4829 31.211C42.7008 30.9238 42.4235 30.9436 41.6609 31.2704C40.6903 31.6171 39.6702 32.0528 38.6006 32.5777C33.8765 34.9646 30.331 37.8168 27.9937 41.1247C25.8347 44.3731 25.4484 47.265 26.8349 49.7806C28.4294 52.4447 31.6086 53.8808 36.3822 54.0887C41.3043 54.1977 46.5732 53.0587 52.1886 50.6422C57.913 47.6414 62.2409 44.1453 65.1625 40.1442C67.896 36.2322 68.4902 32.8352 66.965 29.9532" fill="white"/>
<path d="M80.4044 48.4634C81.8702 45.7696 81.4542 42.4914 79.1269 38.6289C76.4231 34.4298 72.7191 30.9832 68.0049 28.2894C67.4206 27.9923 67.3315 28.022 67.7276 28.3785C70.7285 31.1714 72.9469 33.5681 74.4028 35.5489C75.8784 37.5395 76.948 39.4014 77.5918 41.1544C78.9783 45.1159 78.2355 47.4235 75.3733 48.0771C72.0754 48.711 67.7969 47.582 62.5182 44.7099C55.5955 40.5701 50.8318 36.5987 48.237 32.8055C45.1173 28.1012 44.9489 25.041 47.7319 23.6247C51.9806 21.9609 58.4181 23.397 67.0542 27.923C67.4107 27.9626 67.2621 27.7348 66.5887 27.2396C65.8063 26.5662 64.9149 25.9026 63.9246 25.2391C59.4976 22.3372 55.2588 20.7031 51.218 20.3268C47.3258 20.0792 44.632 21.1884 43.1366 23.6544C41.6213 26.3681 41.9679 29.8443 44.1764 34.0732C46.5434 38.3913 50.1682 42.3825 55.0607 46.037C60.5177 49.4934 65.7171 51.4939 70.6393 52.0188C75.3931 52.4249 78.6416 51.2464 80.3648 48.4832" fill="white"/>
<path d="M71.0949 69.3901C74.1651 69.3207 76.7896 67.3103 78.9684 63.3686C81.2562 58.9317 82.3852 53.9996 82.3654 48.5723C82.3258 47.9187 82.2565 47.8593 82.1475 48.3842C81.2265 52.3754 80.2658 55.4951 79.2655 57.7531C78.285 60.0211 77.1956 61.883 76.0072 63.319C73.2737 66.4982 70.9067 67.0131 68.8963 64.864C66.6976 62.3287 65.529 58.0502 65.3903 52.0486C65.5092 43.977 66.5689 37.8763 68.5694 33.7266C71.0751 28.6757 73.6501 26.992 76.2647 28.6955C79.83 31.5378 81.8108 37.8366 82.2069 47.5721C82.3456 47.9088 82.4743 47.6612 82.5734 46.8293C82.7616 45.8191 82.8903 44.7099 82.9695 43.5313C83.2666 38.2427 82.5635 33.7563 80.8699 30.0721C79.1368 26.5761 76.8292 24.8033 73.9472 24.7439C70.8374 24.7934 68.0049 26.8237 65.4399 30.8545C62.8847 35.0636 61.2407 40.1937 60.5177 46.2648C60.2503 52.722 61.1218 58.2186 63.1224 62.7545C65.1427 67.0726 67.787 69.291 71.0454 69.4099" fill="white"/>
<path d="M34.8471 53.2568C33.3813 55.9506 33.7973 59.2288 36.1246 63.0913C38.8284 67.2905 42.5324 70.737 47.2466 73.4308C47.8309 73.7279 47.92 73.6982 47.5239 73.3417C44.523 70.5488 42.3046 68.1521 40.8487 66.1713C39.3731 64.1807 38.3035 62.3188 37.6597 60.5658C36.2732 56.6043 37.016 54.2967 39.8782 53.6431C43.1761 53.0092 47.4546 54.1383 52.7333 57.0103C59.656 61.1501 64.4197 65.1215 67.0145 68.9147C70.1342 73.619 70.3026 76.6792 67.5196 78.0955C63.2709 79.7593 56.8334 78.3233 48.1973 73.7972C47.8408 73.7576 47.9894 73.9854 48.6628 74.4806C49.4452 75.1541 50.3366 75.8176 51.3269 76.4812C55.7539 79.383 59.9927 81.0171 64.0335 81.3934C67.9256 81.641 70.6195 80.5318 72.1149 78.0658C73.6302 75.3521 73.2836 71.8759 71.075 67.647C68.708 63.329 65.0833 59.3377 60.1908 55.6832C54.7338 52.2268 49.5343 50.2263 44.6122 49.7014C39.8584 49.2953 36.6099 50.4739 34.8867 53.237" fill="white"/>
<path d="M48.3162 71.7868C49.9107 74.4014 52.9611 75.679 57.4673 75.5997C62.4489 75.362 67.2918 73.8765 71.9862 71.143C72.5309 70.7865 72.5507 70.6875 72.0457 70.8558C68.1238 72.0542 64.9447 72.7871 62.4984 73.0445C60.0423 73.3318 57.8932 73.3219 56.0511 73.0049C51.9311 72.2225 50.297 70.43 51.1586 67.6173C52.2579 64.4481 55.3776 61.2987 60.5078 58.1691C67.5592 54.2373 73.3728 52.0981 77.9582 51.7613C83.5935 51.4048 86.3269 52.7913 86.1585 55.911C85.4752 60.4172 81.0185 65.28 72.7785 70.4993C72.5607 70.7865 72.838 70.7667 73.6005 70.4399C74.5711 70.0932 75.5912 69.6575 76.6608 69.1326C81.3849 66.7458 84.9305 63.8935 87.2677 60.5856C89.4268 57.3372 89.813 54.4453 88.4265 51.9297C86.832 49.2656 83.6529 47.8296 78.8892 47.6216C73.967 47.5126 68.6982 48.6516 63.0827 51.0681C57.3584 54.0689 53.0304 57.565 50.1088 61.5661C47.3754 65.4781 46.7811 68.8751 48.3063 71.7571" fill="white"/>
<path d="M135.812 38.9384C135.865 42.0619 135.865 68.5846 135.865 70.7552C135.865 71.5492 135.97 71.7081 136.764 71.7081C138.564 71.7081 138.564 71.761 140.364 71.7081C140.735 71.7081 141.37 71.7081 141.688 71.5493C142.058 71.3904 141.847 58.8967 141.847 58.2085C141.847 57.4673 143.329 57.6261 143.753 57.6261C152.593 57.6261 155.029 51.2734 155.029 45.8735C155.029 41.0031 154.076 32.0033 143.064 32.0033C141.158 32.0033 139.2 32.0563 137.347 32.0563C136.923 32.0563 136.394 32.0033 136.023 32.268C135.6 32.5857 135.759 37.2973 135.812 38.9384ZM141.9 49.844C141.9 48.6793 141.847 41.7442 141.9 39.6266C141.9 39.309 141.847 38.9384 141.9 38.5678C142.058 37.9855 142.747 37.9855 143.276 38.0384C146.347 38.2502 148.094 40.9501 148.358 43.8089C148.57 45.8735 148.305 48.944 146.823 50.5851C145.764 51.6969 144.388 52.3851 142.588 52.3851C142.217 52.3851 141.847 51.9616 141.847 51.591C141.847 51.0087 141.847 50.4263 141.9 49.844Z" fill="black"/>
<path d="M179.881 32.0033L160.017 71.7316H199.745L179.881 32.0033ZM179.881 39.4072L191.077 61.7995H176.087L177.742 58.4887H185.719L179.881 46.8091L170.731 65.1104H192.732L194.388 68.4207H165.374L179.881 39.4072Z" fill="black"/>
<path d="M205.335 39.1932C205.388 42.2896 205.388 68.5827 205.388 70.7344C205.388 71.5217 205.493 71.6791 206.28 71.6791C208.064 71.6791 208.064 71.7316 209.849 71.6791C210.216 71.6791 210.846 71.6791 211.161 71.5217C211.528 71.3642 211.318 58.9787 211.318 58.2964C211.318 57.5617 212.788 57.7191 213.208 57.7191C221.972 57.7191 224.386 51.4214 224.386 46.0683C224.386 41.24 223.441 32.3182 212.525 32.3182C210.636 32.3182 208.694 32.3707 206.857 32.3707C206.438 32.3707 205.913 32.3182 205.545 32.5806C205.125 32.8955 205.283 37.5663 205.335 39.1932ZM211.371 50.0044C211.371 48.8498 211.318 41.9748 211.371 39.8755C211.371 39.5606 211.318 39.1932 211.371 38.8259C211.528 38.2486 212.21 38.2486 212.735 38.3011C215.779 38.511 217.511 41.1875 217.773 44.0215C217.983 46.0683 217.721 49.1122 216.252 50.7391C215.202 51.8412 213.837 52.5235 212.053 52.5235C211.686 52.5235 211.318 52.1036 211.318 51.7362C211.318 51.159 211.318 50.5817 211.371 50.0044ZM229.687 60.9205H229.634C229.634 62.2325 229.582 63.597 229.634 64.9615C229.687 66.6409 229.792 68.3203 229.897 69.9997C229.897 70.577 230.054 70.7344 230.579 70.8394C231.681 71.1018 232.731 71.1543 233.833 71.1543C236.667 71.0493 239.501 71.2593 242.335 71.1543C243.489 71.1018 244.014 71.2068 245.169 70.9968C246.218 70.7869 246.586 70.2096 246.586 68.6352C246.481 67.6381 246.533 67.2182 246.533 66.0111C246.533 64.2793 245.326 63.702 244.276 63.7544C243.542 63.8069 240.025 63.702 238.608 63.702C236.247 63.7544 236.614 64.0693 236.614 61.6027C236.614 59.6084 236.667 57.0369 236.667 54.9901C236.667 53.888 236.772 53.5206 237.821 53.5206H244.381C245.431 53.6781 246.166 52.9433 246.166 51.8412C246.166 50.7391 246.271 50.6866 246.271 49.5845L246.113 48.0101C246.008 47.1179 245.693 46.803 244.801 46.803C244.224 46.803 243.647 46.8555 243.069 46.908C240.813 47.0654 239.763 46.7505 237.559 46.908C236.824 46.908 236.719 46.803 236.667 46.1208C236.457 44.074 236.667 41.8173 236.877 39.7705C236.929 38.9308 237.139 38.7734 237.926 38.7209L245.326 38.6684C246.323 38.5635 246.638 38.616 246.586 37.6188C246.481 36.0969 246.638 34.5224 246.481 33.0005C246.376 32.1608 246.113 32.0033 245.169 32.0033C243.594 32.0558 243.227 32.0558 241.652 32.1608C240.078 32.2133 233.78 32.2133 232.258 32.2133C230.054 32.2133 229.897 32.0558 229.844 34.7323C229.739 36.8316 229.792 38.9833 229.792 41.1351C229.792 44.8087 229.582 57.9815 229.687 60.9205ZM258.341 67.743C258.341 66.3785 258.341 57.7716 258.394 57.0893C258.446 56.9319 258.551 56.617 258.761 56.617C258.971 56.617 259.076 56.722 259.129 56.8794C261.228 60.9729 263.065 65.0665 264.954 69.055C265.216 69.6323 265.794 71.3117 265.951 71.4692C266.161 71.7841 266.528 71.6791 266.843 71.6791L272.616 71.7316C273.299 71.7316 273.456 71.3117 273.299 70.7344C272.879 69.16 269.887 63.597 269.205 62.2325C268.733 61.1829 265.584 55.095 265.479 54.6227C265.374 54.4128 266.161 54.0454 266.266 53.888C268.785 51.6313 271.042 49.3221 271.514 45.8059C272.039 42.3421 271.252 38.5635 268.995 35.782C267.263 33.7352 265.007 32.5281 262.33 32.3707C260.703 32.2657 259.129 32.4232 257.502 32.3707C256.085 32.3182 255.088 32.3182 253.303 32.3182C252.464 32.3182 251.939 32.7905 251.886 33.6827V34.3125C251.781 38.3535 251.886 42.3946 251.939 46.3832C251.939 52.471 251.834 68.5302 251.834 70.8394C251.834 71.5217 251.939 71.6791 252.568 71.6791C252.936 71.6791 253.356 71.7316 253.723 71.7316C255.193 71.7316 256.085 71.6791 257.607 71.6791C258.761 71.6791 258.341 69.7898 258.341 67.743ZM258.341 47.2754L258.394 41.9748C258.446 41.1875 258.184 39.6131 258.919 39.0358C259.916 38.3011 261.963 39.0358 262.855 39.6656C265.479 41.4499 265.269 45.8584 263.852 48.325C263.17 49.4796 262.015 50.1618 260.703 50.5292C259.916 50.7391 258.446 51.0015 258.394 49.742C258.394 48.9023 258.341 47.2754 258.341 47.2754ZM278.652 60.9205H278.599C278.599 62.2325 278.547 63.597 278.599 64.9615C278.652 66.6409 278.704 68.3203 278.809 69.9997C278.862 70.577 278.967 70.7344 279.544 70.8394C280.593 71.1018 281.696 71.1543 282.798 71.1543C285.632 71.0493 285.632 70.577 285.632 68.6352C285.527 67.6381 285.579 67.2182 285.579 66.0111C285.579 64.2793 285.527 64.0693 285.527 61.6027C285.579 59.6084 285.579 57.0369 285.579 54.9901C285.579 53.888 285.737 53.5206 286.734 53.5206H294.396C295.498 53.6781 295.078 52.9433 295.078 51.8412C295.078 50.7391 295.236 50.6866 295.183 49.5845C295.183 49.0597 295.078 48.5349 295.026 48.0101C294.921 47.1179 294.606 46.803 293.714 46.803C293.136 46.803 293.661 46.8555 293.136 46.908C290.88 47.0654 288.728 46.7505 286.471 46.908C285.737 46.908 285.632 46.803 285.579 46.1208C285.422 44.074 285.579 41.8173 285.789 39.7705C285.894 38.9308 286.051 38.7734 286.839 38.7209L294.239 38.6684C295.288 38.5635 295.603 38.616 295.498 37.6188C295.393 36.0969 295.603 34.5224 295.393 33.0005C295.288 32.1608 295.078 32.0033 294.134 32.0033C292.559 32.0558 292.192 32.0558 290.617 32.1608C289.043 32.2133 282.693 32.2133 281.171 32.2133C279.019 32.2133 278.809 32.0558 278.757 34.7323C278.704 36.8316 278.704 38.9833 278.704 41.1351C278.704 44.8087 278.494 57.9815 278.652 60.9205ZM300.746 37.4614C300.694 40.7152 301.009 64.4892 300.956 66.2211C300.956 67.848 300.956 69.4749 301.009 71.1018C301.009 71.3642 301.166 71.6266 301.428 71.6266C305.102 71.7841 308.723 71.4692 312.397 71.5217C313.604 71.5741 314.811 71.5217 315.966 71.5217C317.12 71.4692 317.225 70.9968 317.173 70.0522C317.12 68.5827 317.12 67.2707 317.12 65.8537C317.068 65.119 316.648 64.8565 316.018 64.8565C313.867 64.909 311.715 64.8041 309.563 64.909C309.196 64.9615 308.828 64.9615 308.461 64.9615C307.831 64.909 307.674 64.7516 307.621 64.0693V63.2821C307.464 58.9262 307.779 54.4128 307.779 50.0569C307.726 46.3832 307.779 43.0769 307.726 39.823C307.726 38.406 307.726 36.989 307.674 35.6245C307.621 34.7848 307.674 33.8926 307.464 33.053C307.359 32.7381 307.201 32.3182 306.834 32.3182H301.901C301.061 32.3182 300.799 32.8955 300.746 33.7352V37.4614ZM350.079 41.9748C351.181 45.2286 351.443 48.7448 351.443 52.2086C351.443 55.095 350.918 57.8766 350.183 60.6581C349.239 63.9644 347.664 66.9558 344.83 68.8976C342.731 70.4196 340.527 71.4167 337.955 71.6791C337.588 71.6791 337.273 71.7316 336.906 71.7316C336.591 71.7316 336.276 71.6791 335.909 71.6791C333.337 71.4167 331.133 70.4196 328.981 68.8976C326.2 66.9558 324.573 63.9644 323.68 60.6581C322.893 57.8766 322.421 55.095 322.421 52.2086C322.421 48.7448 322.683 45.2286 323.785 41.9748C325.727 36.3593 331.08 32.3707 336.906 32.2657C342.731 32.3707 348.084 36.3593 350.079 41.9748ZM344.988 56.0397C345.513 52.8384 345.303 49.5845 344.673 46.3832C344.043 43.4967 342.784 40.6627 340.37 38.9308C339.95 38.616 339.477 38.3535 339.005 38.1961C338.323 37.8812 337.588 37.7763 336.906 37.7763C336.223 37.7763 335.541 37.8812 334.859 38.1961C334.334 38.3535 333.914 38.616 333.494 38.9308C331.028 40.6627 329.768 43.4967 329.191 46.3832C328.561 49.5845 328.351 52.8384 328.876 56.0397C329.401 58.9262 330.451 62.8098 333.18 64.2793C334.334 64.909 335.594 65.3289 336.906 65.3814C338.218 65.3289 339.53 64.909 340.684 64.2793C343.413 62.8098 344.463 58.9262 344.988 56.0397ZM358.843 32.2657C358.79 32.2657 358.371 32.2133 357.951 32.2133C357.216 32.2133 356.849 32.4757 356.744 33.1579C356.691 33.5253 356.691 33.9451 356.796 34.26C357.216 35.8869 365.351 69.5274 365.77 70.9968C365.928 71.6266 365.98 71.6266 366.61 71.6266H370.861H371.176C371.858 71.6266 371.911 70.682 372.068 69.7898C373.118 64.3842 374.43 59.0311 375.689 53.8355C375.742 53.5206 375.847 53.2057 375.952 52.9433C376.004 52.8384 376.109 52.7859 376.162 52.7859C376.267 52.7859 376.372 52.8384 376.424 52.9433C376.686 53.5731 379.835 68.4777 380.465 71.0493C380.57 71.3642 380.728 71.6266 381.147 71.6266H385.346C386.133 71.6266 386.658 71.2068 386.815 70.4196C387.498 66.9558 388.39 63.0722 389.229 59.6609C390.279 55.4624 391.381 51.3164 392.483 47.1179C393.323 43.7591 394.215 40.0854 395.265 36.7791C395.632 35.677 396.997 32.3707 394.688 32.3707C393.533 32.3707 392.536 32.2657 391.381 32.3182C391.014 32.3182 390.646 32.3182 390.279 32.3707C389.702 32.3707 389.282 32.6856 389.072 33.2104C388.915 33.7352 388.652 34.3125 388.495 34.8373C387.708 38.1961 386.973 42.0272 386.028 45.3335C385.346 47.8002 384.611 50.2143 384.034 52.6809C384.034 52.7334 383.824 53.5206 383.614 53.5206C383.247 53.5206 383.142 52.9433 383.037 52.4185C382.984 52.2086 380.36 37.1465 379.993 34.2075C379.888 33.0529 379.52 32.3707 378.313 32.3182H377.684C376.319 32.4232 375.584 32.2657 374.22 32.3707C373.118 32.4232 372.96 32.5281 372.698 33.5253C372.645 33.7352 372.645 33.9976 372.593 34.26C372.173 36.5692 369.444 51.4738 369.077 53.2582C369.077 53.3632 369.024 53.5731 368.867 53.5731C368.657 53.5731 368.604 53.3107 368.552 53.2057C368.499 52.9958 363.934 33.7352 363.776 33.2629C363.566 32.6331 363.094 32.2657 362.359 32.2657C361.205 32.3182 360.312 32.2657 358.843 32.2657Z" fill="black"/>
</g>
<defs>
<clipPath id="clip0_2_162">
<rect width="396" height="102.631" fill="white"/>
</clipPath>
</defs>
</svg>
